<?xml version="1.0" encoding="UTF-8"?>
<svg xmlns="http://www.w3.org/2000/svg" xmlns:xlink="http://www.w3.org/1999/xlink" width="32px" height="32px" viewBox="0 0 32 32" version="1.1">
<g id="surface1">
<path style=" stroke:none;fill-rule:nonzero;fill:rgb(30.196078%,27.058824%,26.666667%);fill-opacity:1;" d="M 24.382812 28.933594 C 25.164062 28.789062 25.542969 28.851562 26.304688 28.292969 C 26.949219 27.820312 27.828125 27.410156 28.214844 26.675781 C 28.386719 26.316406 28.460938 25.914062 28.421875 25.515625 C 28.363281 24.539062 28.179688 23.570312 27.875 22.640625 C 27.542969 21.660156 26.0625 18.253906 25.824219 17.535156 C 25.558594 16.753906 25.269531 15.949219 24.679688 15.371094 C 24.355469 15.054688 23.957031 14.824219 23.554688 14.613281 C 23.234375 14.425781 21.519531 13.515625 21.378906 13.441406 C 22.109375 12.949219 22.703125 12.425781 23.21875 11.460938 C 23.324219 11.265625 23.410156 11.0625 23.472656 10.851562 C 23.828125 9.585938 23.617188 8.238281 23.40625 6.9375 C 23.289062 6.207031 22.367188 3.351562 20.46875 2.023438 C 19.570312 1.394531 16.761719 0.28125 15.738281 0.207031 C 14.714844 0.28125 11.90625 1.394531 11.007812 2.023438 C 9.105469 3.351562 8.1875 6.207031 8.070312 6.9375 C 7.855469 8.238281 7.648438 9.585938 8.003906 10.851562 C 8.066406 11.0625 8.152344 11.265625 8.257812 11.460938 C 8.773438 12.429688 9.367188 12.949219 10.097656 13.445312 C 9.914062 13.535156 8.761719 14.285156 8.445312 14.472656 C 8.039062 14.683594 7.640625 14.910156 7.316406 15.230469 C 6.726562 15.804688 6.4375 16.613281 6.171875 17.394531 C 5.933594 18.113281 4.453125 21.519531 4.121094 22.5 C 3.816406 23.429688 3.632812 24.398438 3.574219 25.375 C 3.539062 25.773438 3.609375 26.171875 3.78125 26.53125 C 4.167969 27.269531 5.046875 27.679688 5.691406 28.152344 C 6.273438 28.515625 6.929688 28.746094 7.609375 28.832031 "/>
<path style=" stroke:none;fill-rule:nonzero;fill:rgb(100%,100%,100%);fill-opacity:1;" d="M 11.167969 10.722656 C 10.875 10.089844 10.730469 9.289062 10.808594 8.277344 C 11.65625 7.433594 13.671875 6.292969 15.636719 6.292969 C 17.605469 6.292969 19.617188 7.433594 20.46875 8.277344 C 20.675781 10.566406 19.320312 12.382812 17.960938 12.722656 C 17.386719 12.875 16.796875 12.964844 16.207031 12.992188 C 15.578125 13.019531 14.523438 12.941406 14.523438 12.941406 C 13.179688 12.695312 11.8125 12.113281 11.167969 10.722656 Z M 11.167969 10.722656 "/>
<path style=" stroke:none;fill-rule:nonzero;fill:rgb(12.941176%,9.019608%,8.235294%);fill-opacity:1;" d="M 23.453125 17.863281 C 23.125 19.207031 22.773438 20.550781 22.515625 21.914062 C 22.46875 22.148438 22.425781 22.386719 22.398438 22.628906 C 22.375 22.855469 22.378906 23.085938 22.378906 23.316406 C 22.371094 23.839844 22.371094 24.363281 22.375 24.890625 C 22.378906 25.601562 22.382812 26.308594 22.382812 27.019531 C 22.382812 27.292969 22.804688 27.292969 22.804688 27.019531 C 22.804688 25.863281 22.789062 24.707031 22.796875 23.550781 C 22.800781 23.292969 22.796875 23.035156 22.808594 22.777344 C 22.8125 22.738281 22.816406 22.699219 22.820312 22.660156 C 22.824219 22.613281 22.828125 22.570312 22.832031 22.550781 C 22.847656 22.429688 22.867188 22.3125 22.890625 22.195312 C 23.003906 21.554688 23.152344 20.917969 23.300781 20.285156 C 23.484375 19.511719 23.671875 18.746094 23.863281 17.976562 C 23.925781 17.710938 23.519531 17.597656 23.453125 17.863281 Z M 23.453125 17.863281 "/>
<path style=" stroke:none;fill-rule:nonzero;fill:rgb(12.941176%,9.019608%,8.235294%);fill-opacity:1;" d="M 24.308594 24.25 C 24.511719 24.359375 24.707031 24.476562 24.894531 24.605469 C 24.988281 24.667969 25.078125 24.734375 25.167969 24.800781 C 25.175781 24.808594 25.191406 24.820312 25.171875 24.804688 L 25.207031 24.832031 C 25.230469 24.851562 25.253906 24.871094 25.28125 24.890625 C 25.324219 24.925781 25.371094 24.964844 25.414062 25.003906 C 25.5 25.085938 25.632812 25.082031 25.710938 25.003906 C 25.792969 24.921875 25.796875 24.789062 25.714844 24.703125 C 25.347656 24.390625 24.949219 24.113281 24.523438 23.882812 C 24.421875 23.824219 24.292969 23.859375 24.234375 23.960938 C 24.175781 24.0625 24.207031 24.191406 24.308594 24.25 Z M 24.308594 24.25 "/>
<path style=" stroke:none;fill-rule:nonzero;fill:rgb(12.941176%,9.019608%,8.235294%);fill-opacity:1;" d="M 8.085938 17.976562 C 8.410156 19.308594 8.757812 20.644531 9.019531 21.992188 C 9.042969 22.121094 9.066406 22.25 9.089844 22.382812 C 9.105469 22.488281 9.117188 22.558594 9.125 22.648438 C 9.148438 22.878906 9.144531 23.113281 9.144531 23.347656 C 9.152344 23.867188 9.152344 24.386719 9.148438 24.90625 C 9.144531 25.609375 9.140625 26.316406 9.140625 27.019531 C 9.140625 27.292969 9.5625 27.292969 9.5625 27.019531 C 9.5625 25.851562 9.578125 24.683594 9.570312 23.519531 C 9.566406 23.265625 9.574219 23.011719 9.558594 22.761719 C 9.539062 22.542969 9.511719 22.328125 9.46875 22.113281 C 9.351562 21.46875 9.203125 20.828125 9.054688 20.191406 C 8.871094 19.414062 8.679688 18.636719 8.492188 17.863281 C 8.425781 17.597656 8.019531 17.710938 8.085938 17.972656 Z M 8.085938 17.976562 "/>
<path style=" stroke:none;fill-rule:nonzero;fill:rgb(12.941176%,9.019608%,8.235294%);fill-opacity:1;" d="M 7.421875 23.882812 C 6.996094 24.113281 6.597656 24.390625 6.230469 24.703125 C 6.148438 24.785156 6.148438 24.921875 6.230469 25.003906 C 6.316406 25.082031 6.445312 25.082031 6.53125 25.003906 C 6.570312 24.96875 6.613281 24.929688 6.65625 24.894531 C 6.683594 24.875 6.707031 24.855469 6.730469 24.835938 L 6.765625 24.8125 C 6.792969 24.789062 6.742188 24.828125 6.769531 24.808594 C 6.863281 24.738281 6.953125 24.671875 7.050781 24.605469 C 7.238281 24.476562 7.433594 24.355469 7.636719 24.25 C 7.734375 24.1875 7.769531 24.058594 7.710938 23.960938 C 7.652344 23.859375 7.523438 23.828125 7.421875 23.882812 Z M 7.421875 23.882812 "/>
<path style=" stroke:none;fill-rule:nonzero;fill:rgb(12.941176%,9.019608%,8.235294%);fill-opacity:1;" d="M 15.996094 19.609375 C 12.523438 19.632812 9.066406 19.65625 7.839844 19.660156 C 7.746094 19.660156 7.65625 19.695312 7.589844 19.761719 C 7.523438 19.828125 7.488281 19.917969 7.488281 20.011719 C 7.496094 22.007812 7.589844 28.90625 7.664062 31.441406 C 7.667969 31.636719 7.828125 31.789062 8.023438 31.785156 C 9.132812 31.769531 12.566406 31.777344 15.996094 31.789062 C 19.421875 31.777344 22.855469 31.769531 23.964844 31.785156 C 24.160156 31.789062 24.320312 31.636719 24.324219 31.441406 C 24.398438 28.90625 24.496094 22.007812 24.5 20.011719 C 24.503906 19.917969 24.464844 19.828125 24.398438 19.761719 C 24.332031 19.695312 24.242188 19.660156 24.148438 19.660156 C 22.921875 19.65625 19.46875 19.632812 15.996094 19.609375 Z M 15.996094 19.609375 "/>
<path style=" stroke:none;fill-rule:nonzero;fill:rgb(30.196078%,27.058824%,26.666667%);fill-opacity:1;" d="M 9.164062 30.75 C 10.84375 30.738281 12.527344 30.746094 14.210938 30.753906 C 16.265625 30.757812 18.320312 30.75 20.375 30.746094 C 21.191406 30.746094 22.007812 30.742188 22.828125 30.75 C 23.097656 30.75 23.097656 30.328125 22.828125 30.328125 C 21.144531 30.316406 19.460938 30.324219 17.777344 30.328125 C 15.722656 30.335938 13.671875 30.328125 11.617188 30.324219 C 10.796875 30.324219 9.980469 30.320312 9.164062 30.328125 C 8.890625 30.328125 8.890625 30.75 9.164062 30.75 Z M 9.164062 30.75 "/>
<path style=" stroke:none;fill-rule:nonzero;fill:rgb(12.941176%,9.019608%,8.235294%);fill-opacity:1;" d="M 7.609375 28.621094 C 7.59375 28.617188 7.578125 28.617188 7.5625 28.613281 C 7.59375 28.617188 7.558594 28.613281 7.554688 28.613281 C 7.523438 28.609375 7.492188 28.605469 7.460938 28.597656 C 7.386719 28.585938 7.308594 28.570312 7.234375 28.554688 C 7.078125 28.519531 6.925781 28.476562 6.773438 28.425781 C 6.390625 28.304688 6.03125 28.125 5.699219 27.898438 C 5.136719 27.503906 4.449219 27.179688 4.0625 26.589844 C 3.847656 26.25 3.75 25.851562 3.78125 25.449219 C 3.84375 24.316406 4.078125 23.203125 4.476562 22.140625 C 4.875 21.101562 5.316406 20.074219 5.742188 19.046875 C 5.921875 18.609375 6.101562 18.175781 6.273438 17.734375 C 6.488281 17.175781 6.648438 16.597656 6.945312 16.070312 C 7.132812 15.726562 7.386719 15.425781 7.691406 15.179688 C 7.984375 14.949219 8.316406 14.796875 8.628906 14.605469 C 9.082031 14.328125 9.527344 14.035156 9.980469 13.753906 C 10.050781 13.714844 10.117188 13.671875 10.1875 13.632812 C 10.425781 13.503906 10.214844 13.140625 9.976562 13.269531 C 9.523438 13.515625 9.097656 13.816406 8.660156 14.089844 C 8.410156 14.25 8.144531 14.382812 7.890625 14.539062 C 7.511719 14.753906 7.179688 15.035156 6.90625 15.371094 C 6.433594 15.980469 6.199219 16.703125 5.941406 17.417969 C 5.800781 17.816406 5.636719 18.203125 5.476562 18.589844 C 5.03125 19.671875 4.570312 20.75 4.144531 21.839844 C 3.914062 22.414062 3.734375 23.011719 3.601562 23.617188 C 3.503906 24.085938 3.433594 24.5625 3.390625 25.042969 C 3.347656 25.5 3.332031 25.960938 3.492188 26.398438 C 3.773438 27.140625 4.453125 27.585938 5.089844 28 C 5.242188 28.101562 5.398438 28.199219 5.546875 28.308594 C 5.734375 28.433594 5.929688 28.539062 6.132812 28.625 C 6.46875 28.78125 6.816406 28.898438 7.175781 28.972656 C 7.320312 29.003906 7.464844 29.023438 7.609375 29.042969 C 7.726562 29.042969 7.820312 28.949219 7.820312 28.832031 C 7.816406 28.714844 7.722656 28.625 7.609375 28.621094 Z M 7.609375 28.621094 "/>
<path style=" stroke:none;fill-rule:nonzero;fill:rgb(12.941176%,9.019608%,8.235294%);fill-opacity:1;" d="M 24.4375 29.136719 C 24.785156 29.074219 25.144531 29.046875 25.484375 28.953125 C 25.886719 28.835938 26.210938 28.613281 26.550781 28.378906 C 27.1875 27.9375 27.929688 27.5625 28.339844 26.878906 C 28.574219 26.464844 28.675781 25.988281 28.632812 25.515625 C 28.597656 25.015625 28.539062 24.515625 28.445312 24.023438 C 28.320312 23.34375 28.128906 22.679688 27.875 22.035156 C 27.433594 20.902344 26.953125 19.78125 26.488281 18.65625 C 26.332031 18.269531 26.164062 17.886719 26.03125 17.492188 C 25.753906 16.683594 25.457031 15.835938 24.828125 15.222656 C 24.351562 14.757812 23.734375 14.464844 23.152344 14.152344 C 22.664062 13.886719 22.175781 13.625 21.683594 13.363281 L 21.503906 13.269531 C 21.265625 13.140625 21.050781 13.503906 21.292969 13.632812 C 21.703125 13.851562 22.113281 14.070312 22.523438 14.289062 C 22.757812 14.417969 22.992188 14.542969 23.226562 14.671875 C 23.476562 14.808594 23.734375 14.941406 23.976562 15.09375 C 24.335938 15.308594 24.644531 15.597656 24.882812 15.941406 C 25.113281 16.292969 25.296875 16.667969 25.433594 17.066406 C 25.597656 17.507812 25.75 17.949219 25.925781 18.386719 C 26.375 19.496094 26.847656 20.59375 27.292969 21.707031 C 27.492188 22.183594 27.667969 22.671875 27.816406 23.171875 C 27.949219 23.640625 28.046875 24.117188 28.117188 24.601562 C 28.148438 24.835938 28.175781 25.074219 28.195312 25.308594 C 28.222656 25.542969 28.222656 25.78125 28.199219 26.015625 C 28.144531 26.402344 27.964844 26.757812 27.6875 27.027344 C 27.417969 27.285156 27.121094 27.511719 26.804688 27.707031 C 26.644531 27.808594 26.480469 27.914062 26.324219 28.023438 C 26.15625 28.148438 25.980469 28.261719 25.800781 28.367188 C 25.511719 28.515625 25.199219 28.605469 24.875 28.644531 C 24.691406 28.671875 24.507812 28.695312 24.324219 28.730469 C 24.214844 28.761719 24.148438 28.878906 24.179688 28.992188 C 24.210938 29.101562 24.324219 29.167969 24.4375 29.136719 Z M 24.4375 29.136719 "/>
<path style=" stroke:none;fill-rule:nonzero;fill:rgb(12.941176%,9.019608%,8.235294%);fill-opacity:1;" d="M 11.242188 14.378906 C 11.816406 14.746094 12.453125 15 13.121094 15.128906 C 13.234375 15.15625 13.347656 15.09375 13.382812 14.980469 C 13.414062 14.867188 13.347656 14.753906 13.234375 14.722656 C 12.601562 14.601562 12 14.359375 11.457031 14.015625 C 11.226562 13.867188 11.015625 14.234375 11.242188 14.378906 Z M 11.242188 14.378906 "/>
<path style=" stroke:none;fill-rule:nonzero;fill:rgb(12.941176%,9.019608%,8.235294%);fill-opacity:1;" d="M 10.1875 13.25 C 9.648438 12.902344 9.179688 12.457031 8.796875 11.941406 C 8.570312 11.628906 8.382812 11.289062 8.25 10.925781 C 8.125 10.539062 8.050781 10.132812 8.035156 9.726562 C 7.984375 8.878906 8.105469 8.03125 8.238281 7.195312 C 8.296875 6.84375 8.382812 6.496094 8.496094 6.160156 C 8.835938 5.136719 9.332031 4.128906 10.007812 3.273438 C 10.351562 2.824219 10.769531 2.4375 11.238281 2.121094 C 11.648438 1.871094 12.078125 1.648438 12.519531 1.457031 C 13.042969 1.21875 13.574219 1.007812 14.121094 0.816406 C 14.574219 0.648438 15.039062 0.519531 15.515625 0.433594 C 15.550781 0.429688 15.480469 0.4375 15.511719 0.433594 C 15.523438 0.433594 15.53125 0.433594 15.539062 0.433594 C 15.558594 0.429688 15.582031 0.425781 15.605469 0.425781 C 15.644531 0.421875 15.683594 0.417969 15.722656 0.417969 C 15.808594 0.417969 15.890625 0.425781 15.976562 0.433594 C 16 0.4375 15.96875 0.433594 15.964844 0.433594 C 15.976562 0.4375 15.988281 0.4375 16 0.4375 C 16.027344 0.441406 16.054688 0.449219 16.078125 0.453125 C 16.132812 0.460938 16.1875 0.472656 16.242188 0.484375 C 16.355469 0.507812 16.464844 0.535156 16.578125 0.566406 C 17.121094 0.714844 17.652344 0.898438 18.175781 1.117188 C 18.6875 1.324219 19.191406 1.550781 19.683594 1.804688 C 20.113281 2.023438 20.515625 2.296875 20.871094 2.621094 C 21.710938 3.414062 22.316406 4.46875 22.742188 5.515625 C 22.902344 5.902344 23.03125 6.296875 23.136719 6.699219 C 23.183594 6.878906 23.210938 7.054688 23.242188 7.238281 C 23.308594 7.65625 23.371094 8.074219 23.410156 8.496094 C 23.484375 9.308594 23.492188 10.183594 23.214844 10.960938 C 23.078125 11.316406 22.894531 11.648438 22.667969 11.953125 C 22.476562 12.222656 22.253906 12.46875 22.011719 12.691406 C 21.78125 12.894531 21.542969 13.082031 21.289062 13.25 C 21.066406 13.402344 21.277344 13.769531 21.503906 13.613281 C 22.078125 13.238281 22.585938 12.761719 23 12.210938 C 23.242188 11.882812 23.441406 11.523438 23.59375 11.148438 C 23.738281 10.742188 23.828125 10.320312 23.851562 9.890625 C 23.925781 9.011719 23.808594 8.132812 23.671875 7.269531 C 23.613281 6.867188 23.519531 6.472656 23.398438 6.085938 C 23.050781 4.984375 22.511719 3.953125 21.8125 3.035156 C 21.441406 2.546875 20.992188 2.125 20.484375 1.78125 C 20.066406 1.515625 19.625 1.285156 19.167969 1.085938 C 18.609375 0.832031 18.035156 0.597656 17.453125 0.394531 C 16.972656 0.214844 16.472656 0.0859375 15.964844 0.0117188 C 15.5625 -0.0351562 15.152344 0.0625 14.765625 0.171875 C 14.207031 0.328125 13.660156 0.519531 13.128906 0.742188 C 12.121094 1.148438 11.078125 1.589844 10.285156 2.347656 C 9.394531 3.191406 8.773438 4.300781 8.316406 5.429688 C 8.15625 5.820312 8.023438 6.222656 7.917969 6.628906 C 7.867188 6.847656 7.835938 7.070312 7.800781 7.289062 C 7.730469 7.730469 7.667969 8.171875 7.632812 8.621094 C 7.59375 9.054688 7.589844 9.492188 7.625 9.929688 C 7.65625 10.359375 7.746094 10.78125 7.894531 11.183594 C 8.183594 11.882812 8.628906 12.507812 9.191406 13.011719 C 9.4375 13.230469 9.699219 13.429688 9.972656 13.613281 C 10.199219 13.769531 10.410156 13.402344 10.1875 13.25 Z M 10.1875 13.25 "/>
<path style=" stroke:none;fill-rule:nonzero;fill:rgb(12.941176%,9.019608%,8.235294%);fill-opacity:1;" d="M 20.136719 14.015625 C 19.59375 14.359375 18.992188 14.601562 18.359375 14.722656 C 18.246094 14.753906 18.183594 14.867188 18.210938 14.980469 C 18.246094 15.09375 18.359375 15.15625 18.472656 15.128906 C 19.140625 15 19.777344 14.746094 20.351562 14.378906 C 20.582031 14.234375 20.367188 13.867188 20.136719 14.015625 Z M 20.136719 14.015625 "/>
<path style=" stroke:none;fill-rule:nonzero;fill:rgb(30.196078%,27.058824%,26.666667%);fill-opacity:1;" d="M 14.808594 24.96875 C 14.816406 24.949219 14.820312 24.929688 14.828125 24.910156 C 14.835938 24.886719 14.808594 24.949219 14.820312 24.925781 C 14.824219 24.917969 14.828125 24.910156 14.832031 24.902344 C 14.84375 24.882812 14.855469 24.867188 14.867188 24.851562 C 14.867188 24.851562 14.832031 24.890625 14.859375 24.863281 C 14.867188 24.851562 14.875 24.84375 14.882812 24.835938 C 14.886719 24.832031 14.921875 24.792969 14.929688 24.792969 C 14.929688 24.792969 14.882812 24.824219 14.917969 24.804688 C 14.925781 24.796875 14.933594 24.792969 14.941406 24.789062 C 14.957031 24.777344 14.972656 24.769531 14.992188 24.761719 C 15 24.753906 15.007812 24.75 15.015625 24.75 C 14.988281 24.757812 14.980469 24.761719 14.996094 24.757812 C 15.003906 24.753906 15.011719 24.75 15.015625 24.75 C 15.035156 24.742188 15.054688 24.738281 15.070312 24.734375 C 15.082031 24.730469 15.089844 24.730469 15.101562 24.726562 C 15.136719 24.71875 15.09375 24.730469 15.085938 24.726562 C 15.105469 24.726562 15.125 24.726562 15.144531 24.722656 C 15.160156 24.722656 15.171875 24.722656 15.183594 24.726562 C 15.21875 24.726562 15.191406 24.734375 15.175781 24.722656 C 15.195312 24.730469 15.214844 24.734375 15.234375 24.738281 L 15.246094 24.742188 C 15.265625 24.75 15.265625 24.75 15.246094 24.742188 C 15.226562 24.722656 15.246094 24.742188 15.253906 24.746094 C 15.265625 24.75 15.269531 24.757812 15.277344 24.761719 C 15.304688 24.773438 15.25 24.734375 15.269531 24.753906 C 15.277344 24.761719 15.285156 24.769531 15.292969 24.777344 C 15.320312 24.800781 15.273438 24.746094 15.285156 24.769531 C 15.296875 24.78125 15.304688 24.796875 15.3125 24.8125 C 15.332031 24.847656 15.304688 24.8125 15.3125 24.804688 C 15.316406 24.8125 15.316406 24.820312 15.320312 24.828125 C 15.328125 24.847656 15.328125 24.863281 15.332031 24.882812 C 15.339844 24.902344 15.328125 24.902344 15.332031 24.863281 C 15.332031 24.878906 15.332031 24.890625 15.332031 24.90625 C 15.332031 24.914062 15.332031 24.921875 15.332031 24.929688 C 15.332031 24.957031 15.320312 24.933594 15.335938 24.914062 C 15.332031 24.921875 15.332031 24.964844 15.324219 24.96875 C 15.324219 24.96875 15.34375 24.925781 15.328125 24.957031 C 15.324219 24.964844 15.320312 24.972656 15.316406 24.980469 C 15.304688 25.003906 15.292969 25.023438 15.277344 25.042969 C 15.273438 25.054688 15.269531 25.0625 15.261719 25.070312 C 15.277344 25.0625 15.285156 25.039062 15.269531 25.058594 C 15.253906 25.074219 15.238281 25.09375 15.222656 25.109375 C 15.210938 25.121094 15.195312 25.132812 15.179688 25.148438 C 15.160156 25.164062 15.214844 25.125 15.191406 25.140625 C 15.175781 25.148438 15.164062 25.15625 15.152344 25.164062 C 15.132812 25.175781 15.113281 25.183594 15.097656 25.195312 C 15.070312 25.210938 15.132812 25.183594 15.105469 25.191406 C 15.09375 25.195312 15.082031 25.203125 15.066406 25.207031 C 15.054688 25.210938 15.015625 25.210938 15.007812 25.21875 C 15.011719 25.214844 15.058594 25.21875 15.015625 25.21875 C 15.003906 25.21875 14.988281 25.21875 14.972656 25.21875 C 14.9375 25.21875 14.988281 25.210938 14.984375 25.21875 C 14.972656 25.21875 14.960938 25.214844 14.949219 25.210938 C 14.941406 25.210938 14.933594 25.207031 14.921875 25.203125 C 14.910156 25.199219 14.914062 25.203125 14.941406 25.210938 C 14.933594 25.210938 14.929688 25.207031 14.921875 25.203125 C 14.914062 25.199219 14.90625 25.195312 14.898438 25.1875 C 14.863281 25.167969 14.898438 25.179688 14.902344 25.191406 C 14.894531 25.1875 14.886719 25.179688 14.878906 25.171875 C 14.847656 25.148438 14.898438 25.207031 14.875 25.167969 C 14.867188 25.152344 14.839844 25.117188 14.835938 25.097656 C 14.835938 25.101562 14.855469 25.140625 14.839844 25.101562 C 14.835938 25.085938 14.828125 25.070312 14.824219 25.054688 C 14.820312 25.042969 14.820312 25.035156 14.816406 25.023438 C 14.8125 25.015625 14.808594 24.972656 14.8125 25.003906 C 14.8125 25.039062 14.8125 24.984375 14.8125 24.980469 C 14.8125 24.96875 14.820312 24.917969 14.808594 24.96875 C 14.839844 24.855469 14.773438 24.742188 14.664062 24.707031 C 14.550781 24.679688 14.433594 24.746094 14.402344 24.855469 C 14.378906 25.015625 14.40625 25.179688 14.480469 25.324219 C 14.542969 25.460938 14.660156 25.5625 14.804688 25.609375 C 15.066406 25.703125 15.367188 25.578125 15.546875 25.382812 C 15.640625 25.285156 15.707031 25.167969 15.742188 25.039062 C 15.769531 24.902344 15.75 24.757812 15.691406 24.628906 C 15.640625 24.515625 15.550781 24.421875 15.433594 24.367188 C 15.300781 24.304688 15.148438 24.289062 15.003906 24.316406 C 14.714844 24.363281 14.480469 24.574219 14.402344 24.855469 C 14.371094 24.96875 14.4375 25.085938 14.550781 25.117188 C 14.664062 25.148438 14.777344 25.082031 14.808594 24.96875 Z M 14.808594 24.96875 "/>
<path style=" stroke:none;fill-rule:nonzero;fill:rgb(30.196078%,27.058824%,26.666667%);fill-opacity:1;" d="M 17.671875 24.855469 C 17.558594 24.320312 16.746094 24.089844 16.421875 24.558594 C 16.351562 24.667969 16.316406 24.792969 16.320312 24.917969 C 16.328125 25.050781 16.371094 25.175781 16.449219 25.28125 C 16.609375 25.527344 16.898438 25.664062 17.191406 25.628906 C 17.351562 25.605469 17.492188 25.507812 17.574219 25.371094 C 17.667969 25.214844 17.703125 25.035156 17.671875 24.855469 C 17.640625 24.746094 17.527344 24.679688 17.414062 24.710938 C 17.304688 24.742188 17.238281 24.855469 17.265625 24.96875 C 17.257812 24.925781 17.265625 24.953125 17.265625 24.964844 C 17.265625 24.980469 17.265625 24.992188 17.265625 25.007812 C 17.265625 25.039062 17.273438 24.972656 17.265625 25 C 17.261719 25.011719 17.261719 25.019531 17.257812 25.03125 C 17.253906 25.054688 17.246094 25.078125 17.238281 25.101562 C 17.234375 25.113281 17.226562 25.140625 17.238281 25.097656 C 17.234375 25.109375 17.230469 25.121094 17.222656 25.132812 C 17.21875 25.144531 17.210938 25.15625 17.207031 25.164062 L 17.203125 25.171875 C 17.1875 25.191406 17.1875 25.1875 17.207031 25.164062 C 17.199219 25.171875 17.195312 25.179688 17.1875 25.183594 C 17.164062 25.207031 17.199219 25.179688 17.199219 25.179688 C 17.195312 25.1875 17.15625 25.203125 17.148438 25.207031 C 17.117188 25.226562 17.15625 25.203125 17.160156 25.203125 C 17.148438 25.207031 17.132812 25.210938 17.121094 25.214844 C 17.109375 25.214844 17.101562 25.21875 17.09375 25.222656 C 17.097656 25.21875 17.140625 25.21875 17.105469 25.21875 C 17.09375 25.21875 17.054688 25.226562 17.046875 25.21875 C 17.054688 25.226562 17.082031 25.222656 17.054688 25.21875 C 17.046875 25.214844 17.035156 25.214844 17.023438 25.210938 C 17.011719 25.207031 17 25.203125 16.988281 25.199219 C 16.945312 25.183594 16.988281 25.199219 16.988281 25.199219 C 16.988281 25.203125 16.9375 25.171875 16.933594 25.171875 C 16.921875 25.164062 16.910156 25.15625 16.898438 25.148438 C 16.894531 25.144531 16.867188 25.125 16.890625 25.144531 C 16.917969 25.164062 16.867188 25.125 16.863281 25.117188 C 16.847656 25.101562 16.828125 25.085938 16.8125 25.066406 C 16.808594 25.058594 16.792969 25.035156 16.808594 25.058594 C 16.824219 25.085938 16.808594 25.058594 16.804688 25.050781 C 16.792969 25.035156 16.78125 25.015625 16.769531 24.996094 C 16.761719 24.976562 16.753906 24.960938 16.742188 24.945312 C 16.75 24.949219 16.757812 24.988281 16.75 24.953125 C 16.746094 24.941406 16.746094 24.925781 16.742188 24.914062 C 16.742188 24.921875 16.746094 24.96875 16.746094 24.933594 C 16.746094 24.921875 16.742188 24.914062 16.742188 24.90625 C 16.742188 24.898438 16.746094 24.886719 16.746094 24.878906 C 16.746094 24.84375 16.742188 24.890625 16.742188 24.894531 C 16.746094 24.878906 16.75 24.859375 16.753906 24.84375 C 16.753906 24.832031 16.757812 24.824219 16.761719 24.816406 C 16.773438 24.777344 16.742188 24.855469 16.761719 24.820312 C 16.769531 24.804688 16.777344 24.789062 16.785156 24.773438 C 16.804688 24.742188 16.78125 24.785156 16.777344 24.785156 C 16.785156 24.777344 16.792969 24.769531 16.800781 24.761719 C 16.8125 24.75 16.824219 24.753906 16.804688 24.757812 L 16.792969 24.765625 C 16.800781 24.761719 16.804688 24.757812 16.8125 24.753906 C 16.820312 24.75 16.828125 24.746094 16.835938 24.742188 C 16.851562 24.734375 16.84375 24.734375 16.820312 24.746094 C 16.824219 24.746094 16.832031 24.742188 16.839844 24.738281 C 16.855469 24.734375 16.875 24.730469 16.894531 24.726562 C 16.921875 24.71875 16.851562 24.726562 16.882812 24.726562 C 16.894531 24.726562 16.90625 24.726562 16.917969 24.726562 C 16.9375 24.726562 16.957031 24.726562 16.976562 24.726562 C 17.007812 24.730469 16.96875 24.722656 16.964844 24.726562 C 16.96875 24.722656 17 24.734375 17.007812 24.734375 C 17.027344 24.738281 17.046875 24.746094 17.066406 24.753906 C 17.074219 24.753906 17.105469 24.765625 17.074219 24.753906 C 17.042969 24.738281 17.085938 24.761719 17.09375 24.765625 C 17.113281 24.773438 17.128906 24.785156 17.148438 24.796875 C 17.15625 24.800781 17.164062 24.804688 17.171875 24.8125 C 17.144531 24.792969 17.144531 24.789062 17.160156 24.804688 L 17.171875 24.8125 C 17.1875 24.828125 17.203125 24.84375 17.21875 24.863281 C 17.230469 24.875 17.230469 24.886719 17.210938 24.851562 C 17.21875 24.863281 17.226562 24.875 17.234375 24.882812 C 17.238281 24.890625 17.242188 24.898438 17.25 24.90625 C 17.253906 24.914062 17.269531 24.949219 17.253906 24.917969 C 17.238281 24.886719 17.257812 24.925781 17.257812 24.929688 C 17.261719 24.945312 17.265625 24.957031 17.269531 24.96875 C 17.300781 25.082031 17.414062 25.148438 17.527344 25.117188 C 17.636719 25.082031 17.703125 24.96875 17.671875 24.855469 Z M 17.671875 24.855469 "/>
<path style=" stroke:none;fill-rule:nonzero;fill:rgb(30.196078%,27.058824%,26.666667%);fill-opacity:1;" d="M 17.960938 23.578125 C 17.261719 22.871094 16.140625 22.6875 15.199219 22.929688 C 14.65625 23.058594 14.171875 23.375 13.835938 23.820312 C 13.515625 24.261719 13.40625 24.824219 13.539062 25.351562 C 13.683594 25.925781 14.113281 26.539062 14.695312 26.722656 L 14.542969 26.519531 C 14.546875 26.730469 14.546875 26.941406 14.550781 27.148438 C 14.554688 27.253906 14.550781 27.359375 14.632812 27.441406 C 14.714844 27.507812 14.8125 27.542969 14.917969 27.546875 C 15.125 27.566406 15.339844 27.554688 15.550781 27.554688 C 16.015625 27.558594 16.488281 27.558594 16.953125 27.550781 C 17.167969 27.546875 17.421875 27.507812 17.441406 27.246094 C 17.457031 27.007812 17.449219 26.761719 17.453125 26.519531 L 17.300781 26.722656 C 17.890625 26.539062 18.320312 25.917969 18.460938 25.335938 C 18.617188 24.691406 18.410156 24.050781 17.957031 23.578125 C 17.769531 23.382812 17.472656 23.679688 17.660156 23.878906 C 18.015625 24.226562 18.164062 24.738281 18.054688 25.222656 C 17.996094 25.464844 17.886719 25.691406 17.734375 25.886719 C 17.597656 26.082031 17.410156 26.230469 17.1875 26.316406 C 17.097656 26.34375 17.035156 26.425781 17.03125 26.519531 C 17.03125 26.644531 17.027344 26.773438 17.027344 26.898438 C 17.023438 26.953125 17.023438 27.011719 17.023438 27.066406 C 17.027344 27.121094 17.023438 27.175781 17.015625 27.226562 L 17.070312 27.136719 C 17.117188 27.09375 17.070312 27.125 17.042969 27.128906 C 17.011719 27.128906 16.980469 27.128906 16.949219 27.128906 C 16.921875 27.128906 16.894531 27.128906 16.863281 27.132812 C 16.785156 27.132812 16.703125 27.132812 16.625 27.132812 C 16.414062 27.132812 16.207031 27.132812 15.996094 27.132812 C 15.789062 27.132812 15.582031 27.132812 15.371094 27.132812 C 15.292969 27.132812 15.214844 27.132812 15.136719 27.132812 C 15.109375 27.132812 15.082031 27.128906 15.050781 27.128906 C 15.027344 27.128906 15 27.128906 14.972656 27.128906 C 14.945312 27.125 14.878906 27.09375 14.925781 27.136719 L 14.976562 27.226562 C 14.964844 27.117188 14.960938 27.007812 14.96875 26.898438 C 14.96875 26.773438 14.964844 26.644531 14.964844 26.519531 C 14.960938 26.425781 14.898438 26.34375 14.808594 26.316406 C 14.402344 26.1875 14.097656 25.730469 13.972656 25.34375 C 13.839844 24.929688 13.902344 24.480469 14.144531 24.117188 C 14.601562 23.414062 15.476562 23.21875 16.265625 23.261719 C 16.789062 23.292969 17.285156 23.511719 17.660156 23.878906 C 17.851562 24.070312 18.148438 23.773438 17.960938 23.578125 Z M 17.960938 23.578125 "/>
<path style=" stroke:none;fill-rule:nonzero;fill:rgb(30.196078%,27.058824%,26.666667%);fill-opacity:1;" d="M 16.230469 26.769531 L 16.230469 27.246094 C 16.230469 27.304688 16.25 27.355469 16.289062 27.398438 C 16.351562 27.457031 16.441406 27.476562 16.519531 27.441406 C 16.601562 27.410156 16.652344 27.332031 16.652344 27.246094 L 16.652344 26.769531 C 16.652344 26.714844 16.628906 26.660156 16.589844 26.621094 C 16.53125 26.5625 16.4375 26.542969 16.359375 26.574219 C 16.28125 26.609375 16.230469 26.6875 16.230469 26.769531 Z M 16.230469 26.769531 "/>
<path style=" stroke:none;fill-rule:nonzero;fill:rgb(30.196078%,27.058824%,26.666667%);fill-opacity:1;" d="M 15.347656 26.769531 L 15.347656 27.246094 C 15.347656 27.304688 15.367188 27.355469 15.40625 27.398438 C 15.46875 27.457031 15.558594 27.476562 15.636719 27.441406 C 15.714844 27.410156 15.769531 27.332031 15.769531 27.246094 L 15.769531 26.769531 C 15.765625 26.714844 15.746094 26.660156 15.707031 26.621094 C 15.644531 26.5625 15.554688 26.542969 15.476562 26.574219 C 15.398438 26.609375 15.34375 26.6875 15.347656 26.769531 Z M 15.347656 26.769531 "/>
<path style=" stroke:none;fill-rule:nonzero;fill:rgb(85.098039%,85.098039%,85.098039%);fill-opacity:1;" d="M 10.808594 8.277344 C 11.65625 7.433594 13.671875 6.292969 15.636719 6.292969 C 17.605469 6.292969 19.617188 7.433594 20.46875 8.277344 C 20.550781 8.785156 17.066406 7.605469 15.578125 7.605469 C 14.425781 7.605469 10.730469 9.289062 10.808594 8.277344 Z M 10.808594 8.277344 "/>
<path style=" stroke:none;fill-rule:nonzero;fill:rgb(12.941176%,9.019608%,8.235294%);fill-opacity:1;" d="M 11.492188 11.277344 C 11.367188 11.105469 11.257812 10.917969 11.167969 10.722656 C 11.082031 10.535156 11.011719 10.339844 10.957031 10.140625 L 11.128906 10.097656 C 12.265625 9.8125 13.980469 9.230469 14.964844 8.597656 C 15.199219 8.449219 15.457031 8.28125 15.734375 8.316406 C 15.90625 8.351562 16.066406 8.429688 16.199219 8.539062 L 16.292969 8.597656 C 17.277344 9.230469 18.992188 9.8125 20.125 10.097656 L 20.289062 10.136719 C 19.882812 11.5 18.921875 12.480469 17.960938 12.722656 C 17.386719 12.875 16.800781 12.964844 16.207031 12.996094 C 15.578125 13.019531 14.523438 12.945312 14.523438 12.945312 C 13.375 12.730469 12.207031 12.277344 11.492188 11.277344 Z M 11.492188 11.277344 "/>
<path style=" stroke:none;fill-rule:nonzero;fill:rgb(12.941176%,9.019608%,8.235294%);fill-opacity:1;" d="M 11.1875 10.300781 C 11.769531 10.152344 12.347656 9.976562 12.917969 9.78125 C 13.527344 9.578125 14.121094 9.328125 14.695312 9.039062 C 14.957031 8.902344 15.199219 8.71875 15.464844 8.59375 C 15.597656 8.519531 15.753906 8.507812 15.898438 8.558594 C 16.035156 8.625 16.164062 8.707031 16.285156 8.796875 C 16.835938 9.128906 17.414062 9.410156 18.015625 9.636719 C 18.6875 9.902344 19.371094 10.121094 20.070312 10.300781 C 20.332031 10.367188 20.445312 9.960938 20.183594 9.894531 C 19.558594 9.734375 18.949219 9.542969 18.347656 9.3125 C 17.738281 9.09375 17.148438 8.816406 16.589844 8.488281 C 16.300781 8.3125 16.027344 8.070312 15.667969 8.105469 C 15.320312 8.136719 15.046875 8.355469 14.753906 8.527344 C 14.214844 8.828125 13.652344 9.078125 13.070312 9.28125 C 12.414062 9.519531 11.75 9.722656 11.074219 9.894531 C 10.8125 9.960938 10.921875 10.367188 11.1875 10.300781 Z M 11.1875 10.300781 "/>
<path style=" stroke:none;fill-rule:nonzero;fill:rgb(30.196078%,27.058824%,26.666667%);fill-opacity:1;" d="M 15.5 9.027344 C 15.484375 10.148438 15.5 11.269531 15.488281 12.394531 C 15.484375 12.664062 15.90625 12.664062 15.910156 12.394531 C 15.925781 11.269531 15.90625 10.148438 15.921875 9.027344 C 15.921875 8.753906 15.5 8.753906 15.5 9.027344 Z M 15.5 9.027344 "/>
<path style=" stroke:none;fill-rule:nonzero;fill:rgb(12.941176%,9.019608%,8.235294%);fill-opacity:1;" d="M 11.347656 10.613281 C 11.015625 9.886719 10.960938 9.066406 11.019531 8.277344 L 10.957031 8.425781 C 11.378906 8.03125 11.851562 7.691406 12.363281 7.425781 C 13 7.074219 13.683594 6.8125 14.394531 6.648438 C 15.121094 6.484375 15.871094 6.464844 16.605469 6.59375 C 17.328125 6.730469 18.03125 6.96875 18.683594 7.304688 C 19.269531 7.601562 19.847656 7.960938 20.320312 8.425781 L 20.257812 8.277344 C 20.355469 9.25 20.140625 10.226562 19.652344 11.070312 C 19.269531 11.707031 18.683594 12.296875 17.972656 12.5 C 17.230469 12.707031 16.457031 12.804688 15.6875 12.785156 C 15.320312 12.78125 14.957031 12.761719 14.589844 12.738281 C 14.566406 12.734375 14.546875 12.734375 14.523438 12.730469 C 14.59375 12.742188 14.496094 12.722656 14.488281 12.722656 L 14.429688 12.710938 C 14.367188 12.699219 14.308594 12.683594 14.25 12.671875 C 14.027344 12.621094 13.808594 12.558594 13.59375 12.488281 C 13.128906 12.339844 12.691406 12.113281 12.300781 11.816406 C 11.894531 11.496094 11.566406 11.085938 11.347656 10.613281 C 11.289062 10.515625 11.160156 10.480469 11.058594 10.539062 C 10.960938 10.597656 10.929688 10.726562 10.984375 10.828125 C 11.375 11.664062 12.078125 12.292969 12.914062 12.671875 C 13.316406 12.851562 13.734375 12.992188 14.167969 13.085938 C 14.441406 13.140625 14.722656 13.175781 15.007812 13.183594 C 15.417969 13.203125 15.835938 13.222656 16.246094 13.203125 C 16.742188 13.179688 17.230469 13.109375 17.714844 13 C 17.964844 12.949219 18.210938 12.871094 18.445312 12.769531 C 18.785156 12.613281 19.09375 12.394531 19.359375 12.128906 C 19.988281 11.488281 20.417969 10.679688 20.589844 9.796875 C 20.699219 9.296875 20.730469 8.785156 20.679688 8.277344 C 20.660156 8.09375 20.417969 7.941406 20.285156 7.832031 C 20.117188 7.695312 19.945312 7.566406 19.765625 7.449219 C 18.933594 6.886719 18.007812 6.480469 17.03125 6.25 C 16.507812 6.125 15.96875 6.070312 15.433594 6.085938 C 14.894531 6.113281 14.363281 6.203125 13.847656 6.355469 C 12.910156 6.625 12.03125 7.058594 11.246094 7.636719 C 11.082031 7.753906 10.925781 7.878906 10.777344 8.015625 C 10.695312 8.089844 10.609375 8.15625 10.597656 8.277344 C 10.582031 8.425781 10.578125 8.578125 10.578125 8.726562 C 10.566406 9.226562 10.625 9.726562 10.753906 10.210938 C 10.816406 10.421875 10.890625 10.628906 10.984375 10.828125 C 11.042969 10.925781 11.171875 10.960938 11.273438 10.902344 C 11.371094 10.84375 11.40625 10.714844 11.347656 10.613281 Z M 11.347656 10.613281 "/>
<path style=" stroke:none;fill-rule:nonzero;fill:rgb(12.941176%,9.019608%,8.235294%);fill-opacity:1;" d="M 15.996094 19.398438 C 13.566406 19.414062 11.140625 19.429688 8.714844 19.445312 L 8.15625 19.445312 C 7.988281 19.445312 7.796875 19.425781 7.636719 19.484375 C 7.382812 19.585938 7.273438 19.816406 7.277344 20.078125 C 7.277344 20.195312 7.277344 20.316406 7.277344 20.433594 C 7.28125 21.121094 7.289062 21.804688 7.296875 22.488281 C 7.320312 24.3125 7.347656 26.136719 7.378906 27.964844 C 7.394531 28.78125 7.410156 29.597656 7.425781 30.410156 C 7.433594 30.722656 7.441406 31.03125 7.449219 31.34375 C 7.457031 31.613281 7.550781 31.859375 7.824219 31.960938 C 7.976562 32.019531 8.15625 31.996094 8.316406 31.992188 C 10.542969 31.972656 12.765625 31.992188 14.988281 32 C 17.523438 32.007812 20.054688 31.984375 22.589844 31.988281 C 22.960938 31.988281 23.335938 31.988281 23.707031 31.992188 C 23.886719 31.996094 24.078125 32.015625 24.242188 31.925781 C 24.480469 31.796875 24.53125 31.566406 24.539062 31.316406 C 24.558594 30.621094 24.574219 29.921875 24.585938 29.222656 C 24.621094 27.394531 24.652344 25.566406 24.675781 23.734375 C 24.6875 22.929688 24.695312 22.125 24.703125 21.320312 C 24.707031 21.015625 24.710938 20.710938 24.710938 20.402344 C 24.710938 20.285156 24.714844 20.167969 24.714844 20.050781 C 24.726562 19.785156 24.554688 19.542969 24.296875 19.464844 C 24.140625 19.425781 23.953125 19.445312 23.792969 19.445312 C 23.605469 19.445312 23.414062 19.445312 23.226562 19.445312 C 22.753906 19.441406 22.28125 19.4375 21.808594 19.4375 C 20.554688 19.429688 19.296875 19.421875 18.042969 19.414062 C 17.359375 19.40625 16.675781 19.402344 15.996094 19.398438 C 15.722656 19.394531 15.722656 19.816406 15.996094 19.820312 C 18.386719 19.835938 20.78125 19.851562 23.175781 19.867188 C 23.351562 19.867188 23.53125 19.867188 23.710938 19.867188 C 23.855469 19.867188 24.007812 19.855469 24.148438 19.871094 C 24.308594 19.882812 24.289062 20.039062 24.289062 20.160156 C 24.289062 20.28125 24.289062 20.398438 24.289062 20.519531 C 24.28125 21.199219 24.277344 21.882812 24.265625 22.566406 C 24.246094 24.34375 24.21875 26.125 24.1875 27.90625 C 24.175781 28.710938 24.160156 29.511719 24.140625 30.3125 C 24.136719 30.628906 24.128906 30.941406 24.121094 31.257812 C 24.117188 31.371094 24.144531 31.546875 23.996094 31.574219 C 23.929688 31.578125 23.863281 31.578125 23.796875 31.570312 C 23.722656 31.570312 23.648438 31.570312 23.574219 31.570312 C 21.382812 31.554688 19.191406 31.570312 17 31.574219 C 14.511719 31.585938 12.027344 31.5625 9.542969 31.566406 C 9.152344 31.566406 8.761719 31.566406 8.375 31.570312 C 8.246094 31.582031 8.117188 31.582031 7.988281 31.570312 C 7.835938 31.542969 7.871094 31.339844 7.867188 31.222656 C 7.847656 30.523438 7.835938 29.820312 7.820312 29.121094 C 7.789062 27.335938 7.757812 25.550781 7.738281 23.765625 C 7.726562 22.980469 7.714844 22.191406 7.707031 21.40625 C 7.707031 21.101562 7.703125 20.792969 7.699219 20.484375 C 7.699219 20.367188 7.699219 20.25 7.699219 20.132812 C 7.699219 19.992188 7.699219 19.871094 7.871094 19.871094 C 9.910156 19.84375 11.949219 19.847656 13.988281 19.835938 C 14.65625 19.828125 15.324219 19.824219 15.992188 19.820312 C 16.265625 19.816406 16.265625 19.394531 15.996094 19.398438 Z M 15.996094 19.398438 "/>
</g>
</svg>
